# xmcd
#
# Track frame offsets:
#	150
#	19187
#	29912
#	42400
#	81225
#	89600
#	106187
#	148450
#	161525
#	172737
#	183837
#	193937
#	205762
#	219625
#	232075
#	245875
#
# Disc length: 3767 seconds
#
# Revision: 1
# Processed by: cddbd v1.5.1PL0 Copyright (c) Steve Scherf et al.
# Submitted via: CDex 1.50Beta5
#
DISCID=ee0eb510
DTITLE=ブラシシモ・ウィーン - ブラシシモ・ウィーン
DYEAR=1900
DGENRE=Other
TTITLE0=仮面舞踏会のガドリーユ
TTITLE1=ポルカ「雷鳴と電光」
TTITLE2=ポルカ「何か小さなもの」
TTITLE3=皇帝円舞曲
TTITLE4=ポルカ「憂いもなく」
TTITLE5=アンネン・ポルカ
TTITLE6=喜歌劇「くるまば草」序曲
TTITLE7=ポルカ「風車」
TTITLE8=ポルカ「浮気心」
TTITLE9=ポルカ「狩り」
TTITLE10=ピチカート・ポルカ
TTITLE11=ポルカ「ハンガリー万歳」
TTITLE12=ラデツキー行進曲
TTITLE13=かじやのポルカ
TTITLE14=常動曲
TTITLE15=喜歌劇「こうもり」序曲
EXTD=
EXTT0=
EXTT1=
EXTT2=
EXTT3=
EXTT4=
EXTT5=
EXTT6=
EXTT7=
EXTT8=
EXTT9=
EXTT10=
EXTT11=
EXTT12=
EXTT13=
EXTT14=
EXTT15=
PLAYORDER=
